<svg xmlns="http://www.w3.org/2000/svg" viewBox="0 0 100 100"><rect width="100" height="100" rx="22" fill="#1E3A2F"/><g transform="translate(25.42,19.00) scale(0.6200)" fill="#F4EDE0"><path fill-rule="evenodd" d="M42.3 4.3 C41.1 5.5 39.5 7 38.7 7.6 C37.5 8.5 37 9.1 35.9 11 C34.7 12.9 33.7 14.1 32.4 14.9 C32 15.1 29.5 13.3 28.8 12.2 C28.5 11.8 27.8 11.3 27.4 11.1 L26.7 10.7 L24.7 12.9 C23.6 14.2 22.2 15.7 21.7 16.4 C20.9 17.3 20.3 17.7 19.2 18.2 C17.6 18.7 17.3 19 13.8 23.5 C13.2 24.3 11.8 26 10.8 27.4 C6.2 33 3.2 40.2 2.7 46.8 C2.6 48 2.5 49.5 2.5 50.2 C2 56.3 4.5 65.8 8 71.8 C23.3 97.3 60.3 98 76.2 73.1 C77.3 71.4 77.3 71.4 75.4 70.3 C74.8 70 72.8 68.8 70.9 67.8 C69 66.7 66.8 65.4 65.9 64.9 C58.7 60.7 56.8 59.6 56.6 59.6 C56.5 59.6 56.3 59.8 56.2 60.1 C55.8 61.5 52.2 64.6 49.7 65.8 C35.6 72.6 21.2 58.1 28.1 44.1 C33.5 33.1 49 32 56 42.2 C56.8 43.3 56.3 43.5 60.2 41.1 C61.4 40.4 62.8 39.6 63.4 39.3 C64 38.9 66.3 37.6 68.5 36.3 C70.8 35 73.6 33.3 74.9 32.6 C76.1 31.9 77.1 31.2 77.1 31 C77.1 30.6 71.4 21.3 70.5 20.4 C70.3 20.1 69.8 19.8 69.4 19.8 C67.9 19.4 67.1 18.7 65.5 15.9 C64.4 14 63.7 13 63.2 12.8 C62.7 12.5 61.5 11.5 60.4 10.5 C58.1 8.2 58.2 8.2 55.7 10.3 C53 12.6 52.8 12.5 50.9 9.1 C49.9 7.4 49.1 6.5 47 4.5 L44.4 2 L42.3 4.3 Z M43.6 6.9 C43.3 7.8 42.6 9.2 42.2 10 C41.3 11.8 41.4 11.9 42.6 11 L43.6 10.4 L43.6 11.6 C43.6 12.7 43.4 12.9 42.3 14.1 C41.7 14.8 40.5 16.4 39.8 17.5 C38.3 20.1 38.1 20.1 38.2 18.1 C38.2 17.3 38.2 16.5 38.1 16.4 C37.9 16.2 36.3 17.5 34.5 19.4 C33 20.9 29.5 23.6 29.3 23.4 C29.1 23.2 30.2 21.5 31.3 20.2 C31.9 19.6 32.5 18.5 32.8 18 C33.1 17.4 33.8 16.4 34.5 15.9 C35.3 15.2 36.1 14.1 37.1 12.4 C38.2 10.3 38.7 9.8 39.8 9 C40.5 8.5 41.8 7.4 42.5 6.4 C44.1 4.5 44.4 4.6 43.6 6.9 Z M57.6 11.9 C57.4 13.1 57.4 13.4 57.7 14 C58.2 14.8 58.2 14.8 57.1 15.9 C56.4 16.7 55.9 17 55.8 16.9 C55.5 16.6 54.7 16.8 53.5 17.3 C53.1 17.5 52.5 18.3 52 19.2 C50.9 21.2 50.6 21.4 48.2 22.1 C46.6 22.5 45.8 22.9 44.1 24.2 C41.5 26.3 41.4 26.2 43.5 23.5 C46 20.3 46.4 19.9 48.1 19.1 C49.4 18.4 49.8 18.1 50.8 16.5 C51.8 15.1 52.3 14.6 53.5 14 C54.3 13.6 55.6 12.7 56.3 11.9 C58 10.2 57.9 10.2 57.6 11.9 Z M26 14.9 C25.4 17.3 25.4 17.4 25.9 17.3 C27.5 16.9 26.5 18.6 24.4 20.1 C23 20.9 22.3 21.6 21.4 23 C20.1 25 19.9 25.1 19.6 24 C19.4 23 19.4 23 16.5 25 C15.1 26 13.8 27 13.5 27.1 C12.9 27.5 13 27.3 14.8 25 C18.6 20.3 18.7 20.2 19.6 20.1 C20.8 19.8 22 18.7 24.4 15.8 C26.5 13.2 26.5 13.2 26 14.9 Z M69.2 22 C69.6 22.3 71.3 24.8 72.4 26.6 C72.5 26.8 72 26.4 71.2 25.8 C70.4 25.1 69.5 24.4 69.1 24.1 C68.4 23.7 67.4 22.1 67.4 21.5 C67.4 21.2 68.4 21.5 69.2 22 Z"/></g></svg>
